<svg width="512" height="512" viewBox="0 0 512 512" fill="none" xmlns="http://www.w3.org/2000/svg">
<g>
<path opacity="0.5" d="M341.472 60.3334C364.474 60.4603 384.462 60.993 401.064 64.0443L402.683 64.3519C419.354 67.6239 434.445 73.8804 446.926 86.3597H446.927C461.26 100.693 467.335 118.399 470.171 137.855L470.436 139.743V139.744C473.055 159.222 473 183.827 473 213.286V341.286C473 370.759 473.056 395.379 470.436 414.861V414.862C467.719 435.061 461.721 453.45 446.927 468.245H446.926C432.598 482.571 414.888 488.628 395.445 491.458L393.558 491.722C374.078 494.339 349.464 494.286 320 494.286H192C163.456 494.286 139.465 494.335 120.283 491.959L118.442 491.722C98.2588 489.01 79.8645 483.033 65.0742 468.245L65.0703 468.241C50.2866 453.44 44.2818 435.048 41.5644 414.846V414.845C38.945 395.366 39 370.757 39 341.286V213.286C39 183.827 38.9446 159.222 41.5644 139.744V139.743C44.2812 119.545 50.2782 101.155 65.0732 86.3597H65.0742C77.9573 73.4778 93.6227 67.2265 110.936 64.0443L112.502 63.765C128.79 60.9596 148.244 60.4563 170.528 60.3334L179.529 60.2836L179.578 69.2855L179.75 101.286L179.798 110.284L170.8 110.333C147.404 110.463 131.627 111.089 119.971 113.232C109.026 115.244 103.925 118.214 100.426 121.712C96.4669 125.671 93.0937 131.757 91.123 146.409C89.0556 161.78 89 182.413 89 213.286V341.286C89 372.171 89.056 392.809 91.123 408.18L91.3115 409.528C93.3015 423.185 96.5857 429.023 100.427 432.875L100.803 433.245C104.763 437.035 110.913 440.273 125.104 442.179L126.561 442.367C141.78 444.247 162.084 444.286 192 444.286H320C350.881 444.286 371.52 444.244 386.895 442.179C401.545 440.211 407.625 436.824 411.573 432.875C415.532 428.914 418.908 422.836 420.877 408.196C422.945 392.821 423 372.173 423 341.286V213.286C423 182.413 422.944 161.78 420.877 146.409C418.906 131.757 415.532 125.672 411.573 121.713V121.712C408.074 118.214 402.973 115.244 392.029 113.232C380.373 111.089 364.596 110.463 341.2 110.333L332.202 110.284L332.25 101.286L332.422 69.2855L332.471 60.2836L341.472 60.3334Z" fill="#2A2A2A" stroke="#2A2A2A" stroke-width="18"/>
<path d="M304.302 217.846C313.443 209.314 327.7 209.669 336.41 218.54L336.82 218.969C345.487 228.255 344.984 242.821 335.698 251.487H335.697L244.26 336.815L244.261 336.815C235.424 345.062 221.701 345.064 212.864 336.815H212.863L176.301 302.674L176.3 302.673C167.025 294.008 166.515 279.459 175.179 270.173L175.18 270.171C183.711 261.032 197.957 260.399 207.259 268.65L207.698 269.05L228.563 288.528L304.302 217.846Z" fill="#2A2A2A" stroke="#2A2A2A" stroke-width="14" stroke-linecap="round" stroke-linejoin="round"/>
<path d="M309.511 19.6667L309.684 19.6755L314.419 19.9099L314.591 19.9186L314.764 19.9352C326.965 21.1455 338.46 26.4096 347.372 34.9431L348.226 35.779V35.78C358.537 46.0924 364.339 60.0788 364.339 74.6667V95.9948C364.339 110.581 358.541 124.583 348.226 134.898H348.225C337.91 145.212 323.919 150.993 309.34 150.995H202.667C188.085 150.995 174.096 145.211 163.78 134.898H163.779C153.464 124.583 147.667 110.581 147.667 95.9948V74.6667L147.671 73.9831C147.849 59.6416 153.627 45.931 163.779 35.779C174.092 25.4658 188.078 19.6667 202.667 19.6667H309.511ZM202.22 65.6774C199.998 65.7878 197.888 66.7209 196.304 68.3044C194.615 69.9936 193.667 72.2817 193.667 74.6667V95.9948L193.677 96.4401C193.788 98.6606 194.72 100.773 196.303 102.357C197.993 104.046 200.282 104.995 202.667 104.995H309.337C311.723 104.994 314.014 104.044 315.701 102.357C317.389 100.666 318.339 98.374 318.339 95.9948V74.6667C318.339 72.2844 317.39 69.9936 315.701 68.3034C314.252 66.8547 312.355 65.9508 310.338 65.7243L309.171 65.6667H202.667L202.22 65.6774Z" fill="#2A2A2A" stroke="#2A2A2A" stroke-width="14"/>
</g>
</svg>
