<svg width="98" height="107" viewBox="0 0 98 107" fill="none" xmlns="http://www.w3.org/2000/svg">
<g>
<path opacity="0.5" d="M6.64555e-06 73.739V43.739C5.8931e-06 36.7757 -0.00846516 31.1757 0.582282 26.7834C1.18764 22.2828 2.48307 18.4923 5.49317 15.4822C8.11667 12.8589 11.3424 11.5315 15.1318 10.835C18.8145 10.1581 23.3215 10.0298 28.7293 10L28.7695 17.5C23.3032 17.5302 19.4276 17.6736 16.4868 18.2141C13.6535 18.735 12.0122 19.5689 10.7959 20.7849C9.411 22.1698 8.50975 24.1151 8.01636 27.7832C7.50847 31.5593 7.50001 36.5636 7.50001 43.739V73.739C7.50001 80.917 7.50855 85.9223 8.01636 89.6985C8.50935 93.3637 9.41086 95.3088 10.7959 96.6968C12.1774 98.0782 14.1204 98.9833 17.7905 99.4763C21.5678 99.9837 26.5742 99.989 33.75 99.989H63.75C70.9258 99.989 75.9322 99.9837 79.7095 99.4763C83.3796 98.9833 85.3226 98.0782 86.7041 96.6968C88.0882 95.3121 88.9904 93.3694 89.4836 89.7021C89.9916 85.9252 90 80.9176 90 73.739V43.739C90 36.5636 89.9915 31.5593 89.4836 27.7832C88.9903 24.1151 88.089 22.1698 86.7041 20.7849C85.4878 19.5689 83.8465 18.735 81.0132 18.2141C78.0724 17.6736 74.1968 17.5302 68.7305 17.5L68.7708 10C74.1785 10.0298 78.6855 10.1581 82.3682 10.835C86.1576 11.5315 89.3833 12.8589 92.0068 15.4822C95.0169 18.4923 96.3124 22.2828 96.9177 26.7834C97.5085 31.1757 97.5 36.7757 97.5 43.739V73.739C97.5 80.7055 97.5085 86.3089 96.9177 90.7019C96.3123 95.2028 95.0168 98.9932 92.0068 102.003C88.9987 105.011 85.2081 106.302 80.7092 106.907C76.3165 107.497 70.7141 107.489 63.75 107.489H33.75C26.7859 107.489 21.1835 107.497 16.7908 106.907C12.2919 106.302 8.5013 105.011 5.49317 102.003C2.48472 98.9913 1.18773 95.1995 0.582282 90.6982C-0.00838514 86.3059 6.64555e-06 80.7049 6.64555e-06 73.739Z" fill="#2A2A2A"/>
<path d="M61.1902 46.0071C62.7043 44.5941 65.0799 44.6761 66.4929 46.1902C67.906 47.7043 67.8239 50.0799 66.3098 51.4929L44.8792 71.4917C43.4383 72.8364 41.2002 72.8366 39.7595 71.4917L31.1902 63.49C29.6776 62.0769 29.5949 59.7045 31.0071 58.1909C32.4203 56.677 34.7959 56.5946 36.3098 58.0078L42.3193 63.6182L61.1902 46.0071Z" fill="#2A2A2A"/>
<path d="M65.0012 11.25C65.0012 10.2557 64.6055 9.30184 63.9026 8.59863C63.2873 7.98338 62.4794 7.60363 61.6211 7.51831L61.2512 7.5H36.25C35.2554 7.5 34.3019 7.89537 33.5986 8.59863C32.8954 9.30189 32.5 10.2554 32.5 11.25V16.2488C32.5 17.2431 32.8958 18.1969 33.5986 18.9001C34.3019 19.6034 35.2554 19.9988 36.25 19.9988H61.2512C62.2453 19.9985 63.1996 19.6031 63.9026 18.9001C64.6051 18.197 65.0012 17.2428 65.0012 16.2488V11.25ZM72.5012 16.2488C72.5012 19.2325 71.3151 22.0968 69.2053 24.2065C67.0959 26.3157 64.2342 27.4985 61.2512 27.4988H36.25C33.2669 27.4988 30.4056 26.3156 28.2959 24.2065C26.1861 22.0968 25 19.2325 25 16.2488V11.25C25 8.26632 26.1861 5.40568 28.2959 3.2959C30.4057 1.18611 33.2663 5.91947e-08 36.25 0H61.2512L62.3608 0.0549316C64.9366 0.310431 67.359 1.44958 69.2053 3.2959C71.3147 5.40563 72.5012 8.2666 72.5012 11.25V16.2488Z" fill="#2A2A2A"/>
</g>
</svg>
